<svg width="64" height="62" viewBox="0 0 64 62" fill="none" xmlns="http://www.w3.org/2000/svg">
<mask id="mask0_812_59" style="mask-type:alpha" maskUnits="userSpaceOnUse" x="8" y="8" width="48" height="46">
<path d="M39.938 45.4487C40.2181 45.5519 40.4996 46.2519 40.6599 46.5151C40.8626 46.8479 41.0653 47.1808 41.268 47.5137C41.5319 47.9471 41.7409 48.4094 42.0002 48.8354" stroke="white" stroke-width="2" stroke-linecap="round"/>
<path d="M38.8069 46.0931C38.9522 46.3319 39.0905 46.5771 39.244 46.811C39.4292 47.0932 39.7396 47.2675 39.9202 47.5641C40.0659 47.8034 40.2116 48.0427 40.3573 48.282C40.488 48.4966 40.7427 49.034 40.4057 48.4805" stroke="white" stroke-width="2" stroke-linecap="round"/>
<path d="M38.4202 46.1732C38.984 47.1795 39.3179 48.2368 40.1255 49.0926C40.3472 49.3277 40.5408 49.6352 40.8786 49.6147C41.2433 49.5926 41.479 49.376 41.8164 49.2751C42.1739 49.1681 43.3032 48.7705 43.0094 48.2363C42.5985 47.489 42.1666 46.7265 41.7249 46.0011C41.672 45.9143 41.6212 45.8267 41.5441 45.7571C41.3449 45.5772 41.8706 46.1793 42.0343 46.3901C42.5158 47.0101 42.9313 47.8085 43.5153 48.3456C43.6295 48.4507 43.5486 48.0361 43.5107 47.8881C43.4173 47.5234 43.3056 46.9726 42.9124 46.7864C42.6674 46.6703 42.3476 46.7724 42.1471 46.5754" stroke="white" stroke-width="2" stroke-linecap="round"/>
<path d="M40.9582 45.2179C41.5829 44.8617 42.4695 44.534 42.9406 43.9864C43.3243 43.5403 43.763 43.1851 44.1869 42.7768C44.9501 42.0416 45.597 41.1815 46.1547 40.2902" stroke="white" stroke-width="2" stroke-linecap="round"/>
<path d="M42.2731 45.591C44.0371 44.3752 45.7196 43.0333 47.3708 41.6789C47.6587 41.4427 48.5873 40.6933 48.9355 40.2644C49.1169 40.0409 48.9531 40.1173 49.0409 39.908" stroke="white" stroke-width="2" stroke-linecap="round"/>
<path d="M43.4684 46.2434C45.2376 44.9865 47.2334 43.7091 48.4127 41.8611C48.5404 41.661 48.6065 41.4507 48.6871 41.2329" stroke="white" stroke-width="2" stroke-linecap="round"/>
<path d="M44.4798 47.0707C46.2843 45.8598 47.8922 44.4071 49.5724 43.0445" stroke="white" stroke-width="2" stroke-linecap="round"/>
<path d="M44.626 47.5489C44.7938 47.6274 45.1392 47.4193 45.2687 47.3073C45.7413 46.8982 46.139 46.3103 46.5007 45.8095C46.7233 45.5012 46.8418 45.1408 47.1123 44.8681C47.5453 44.4316 47.8871 43.8425 48.178 43.3091C48.6453 42.4523 49.5124 41.7477 49.51 40.7249C49.5089 40.2225 49.7159 39.7715 49.9432 39.3315C50.1169 38.9952 50.0903 38.6175 50.244 38.31" stroke="white" stroke-width="2" stroke-linecap="round"/>
<path d="M48.3679 38.3265C47.8876 38.9995 47.3151 39.6079 46.7564 40.2201C46.6178 40.3719 46.1417 40.7391 46.3405 40.6755C46.6537 40.5753 46.881 40.3094 47.1478 40.1217C47.7206 39.7188 48.4555 39.1961 49.0063 38.7659C49.1859 38.6256 49.6131 38.2985 49.7899 38.054C49.8308 37.9973 49.7944 37.9291 49.7651 37.881" stroke="white" stroke-width="2" stroke-linecap="round"/>
<path d="M49.4596 35.9494C49.0871 36.9386 47.6976 39.7868 48.2682 38.8902C48.5315 38.4764 48.7469 38.047 49.0489 37.6575" stroke="white" stroke-width="2" stroke-linecap="round"/>
<path d="M50.8745 33.3885C50.8661 34.074 50.7858 34.7564 50.7373 35.4398C50.7346 35.4779 50.7545 35.6479 50.6993 35.4965C50.5371 35.0517 50.4398 34.5848 50.311 34.1309" stroke="white" stroke-width="2" stroke-linecap="round"/>
<path d="M51.8777 36.4659C52.2839 35.2613 53.2391 34.3211 53.0973 33.0021C53.0131 32.2184 52.911 31.4508 52.8404 30.6608C52.8209 30.4434 52.8385 29.8415 52.7075 30.019C52.2512 30.6372 52.2428 32.0195 52.0894 32.75C51.9462 33.4321 51.9064 33.7464 51.8078 32.8169C51.727 32.0554 51.5652 31.2978 51.4991 30.5363C51.4142 29.5573 52.0954 34.3891 52.1769 33.4098C52.3763 31.0153 51.1563 34.6039 50.9031 34.058C50.8758 33.9991 51.0235 31.8495 50.4928 31.9679C50.1922 32.0349 50.0798 35.5738 50.4681 33.8068C50.5322 33.5151 50.5116 33.427 50.554 33.7891C50.5762 33.9786 50.6139 34.8405 50.6097 34.8336C50.5477 34.7318 50.519 34.3547 50.3491 34.366C50.1466 34.3795 49.8982 34.6376 49.7935 34.7374C49.5826 34.9381 49.3875 35.5928 49.1975 35.3735C49.1675 35.3388 49.4098 34.8826 49.5013 34.9195C49.7096 35.0035 49.5588 36.0342 49.7527 35.3455C49.8719 34.922 50.3585 33.7385 50.0503 34.0606C49.4188 34.7206 49.0963 35.6782 48.6229 36.4419C48.223 37.0871 48.5222 35.6245 48.6447 35.3922C48.8323 35.0364 48.7318 36.2251 48.5586 36.5877C48.4466 36.8222 48.1142 36.9544 47.9488 37.1615" stroke="white" stroke-width="2" stroke-linecap="round"/>
<path d="M49.7549 36.5535C50.2131 36.7319 51.3414 37.164 51.2811 37.7891C51.2341 38.2765 50.7375 38.9764 50.5577 39.4337C50.4491 39.7099 50.4212 40.1307 50.4042 40.4258C50.3758 40.9205 50.8759 39.5339 50.9849 39.0498C51.1433 38.3462 51.8585 37.8597 51.9658 37.0868C52.0603 36.406 52.3075 35.8653 52.6975 35.2971C52.8711 35.0442 52.2299 36.228 52.021 36.4627C51.3101 37.2608 51.2823 38.2304 50.8575 39.1848C50.646 39.6598 49.91 40.6898 50.0118 41.211C50.1221 41.7752 50.8954 40.4462 50.9435 40.3056C51.3747 39.0447 52.514 38.1862 52.8705 36.8518C52.9494 36.5565 53.0404 36.265 53.0184 35.9564C52.978 35.3884 52.2111 36.5334 52.1267 36.6363C51.2098 37.7544 50.8686 38.3894 50.7382 39.7831C50.6912 40.2854 50.2084 40.9256 50.2464 41.358C50.2697 41.623 50.1353 41.8541 50.0568 42.1056C50.0436 42.1482 49.9084 42.3893 50.0291 42.1527C50.3199 41.5824 50.6678 41.0384 50.9873 40.4834" stroke="white" stroke-width="2" stroke-linecap="round"/>
<path d="M50.9536 28.9913C50.7776 29.5656 50.691 30.1336 50.626 30.73C50.5378 31.5385 50.548 31.6434 50.6733 30.9136C50.7384 30.5345 50.8322 30.16 50.8851 29.779C50.8922 29.7283 50.8527 31.0445 50.8502 31.1247C50.8295 31.7795 50.8003 32.4353 50.822 33.0905C50.8285 33.2844 50.7362 32.7112 50.7005 32.5203C50.6685 32.3489 50.376 30.4523 50.232 31.2744C50.1816 31.5624 50.1378 33.3605 50.2149 32.9141C50.3262 32.2692 50.6533 31.466 50.3511 30.8478C49.8231 29.7677 49.6258 28.6711 49.5247 27.5053C49.445 26.5861 49.9081 29.002 49.9354 29.1195C50.1306 29.961 50.4231 30.832 50.5048 31.696C50.5869 32.5636 50.0095 33.0886 49.8723 33.8737C49.7693 34.4631 50.0007 33.7714 50.0773 33.5618C50.2957 32.9649 50.0679 33.2938 50.3316 33.6352C50.5709 33.945 51.9647 35.728 52.5116 35.3092C52.6751 35.184 52.6059 34.8808 52.707 34.7299" stroke="white" stroke-width="2" stroke-linecap="round"/>
<path d="M49.3723 33.5428C49.2682 33.12 49.3753 32.5676 49.384 32.1324" stroke="white" stroke-width="2" stroke-linecap="round"/>
<path d="M53.5378 35.3796C53.589 34.7904 53.7961 34.1945 53.9168 33.6194" stroke="white" stroke-width="2" stroke-linecap="round"/>
<path d="M49.2325 24.4978C49.8593 25.5948 50.4079 26.7288 50.9841 27.8509" stroke="white" stroke-width="2" stroke-linecap="round"/>
<path d="M49.0348 22.5049C50.5319 25.0986 52.0801 27.7326 53.2996 30.4616" stroke="white" stroke-width="2" stroke-linecap="round"/>
<path d="M51.2404 22.7915C51.6841 23.8344 52.1063 24.8638 52.3075 25.9734" stroke="white" stroke-width="2" stroke-linecap="round"/>
<path d="M53.8646 32.1048C54.288 32.8001 53.5849 30.9652 53.5475 30.8428C53.089 29.3421 52.5977 27.858 52.1112 26.3663" stroke="white" stroke-width="2" stroke-linecap="round"/>
<path d="M53.7184 31.6264C53.8136 30.1169 53.6275 28.629 53.0688 27.224" stroke="white" stroke-width="2" stroke-linecap="round"/>
<path d="M53.1076 27.7636C52.4536 26.4978 51.7332 25.2314 51.3175 23.8709" stroke="white" stroke-width="2" stroke-linecap="round"/>
<path d="M53.1193 26.3532C53.0377 24.9637 52.3017 23.3664 51.3734 22.2948" stroke="white" stroke-width="2" stroke-linecap="round"/>
<path d="M46.0273 18.0425C46.872 19.4297 47.6886 20.8486 48.6731 22.1493" stroke="white" stroke-width="2" stroke-linecap="round"/>
<path d="M49.0693 26.135C48.6574 24.3427 47.787 22.7986 46.9235 21.1817" stroke="white" stroke-width="2" stroke-linecap="round"/>
<path d="M50.9367 23.2457C48.1637 19.7617 45.3316 16.3257 42.4683 12.9126" stroke="white" stroke-width="2" stroke-linecap="round"/>
<path d="M49.2291 19.7269C48.0763 18.0932 46.9459 16.5229 45.5371 15.0935" stroke="white" stroke-width="2" stroke-linecap="round"/>
<path d="M51.0311 22.2091C50.3397 21.1445 49.6049 20.1199 48.8486 19.1016" stroke="white" stroke-width="2" stroke-linecap="round"/>
<path d="M51.2081 21.5468C50.8737 20.767 50.3591 19.9156 49.7882 19.2679C49.2649 18.6742 48.3505 18.2704 47.6788 17.8423C46.9228 17.3603 46.0308 17.1293 45.2492 16.6849C44.4129 16.2094 43.556 15.785 42.749 15.2793" stroke="white" stroke-width="2" stroke-linecap="round"/>
<line y1="-0.5" x2="5.88031" y2="-0.5" transform="matrix(0.00373585 0.987255 -1.01238 0.00358644 32.4224 47.3049)" stroke="white"/>
<path d="M38.1675 46.9492C38.406 46.8223 38.6538 46.7157 38.8992 46.6023" stroke="white" stroke-width="2" stroke-linecap="round"/>
<path d="M40.2866 49.9524C40.2877 49.819 40.4393 49.7089 40.5145 49.612" stroke="white" stroke-width="2" stroke-linecap="round"/>
<path d="M45.2159 17.663C44.6929 17.4606 44.4016 16.9749 43.916 16.7195" stroke="white" stroke-width="2" stroke-linecap="round"/>
<path d="M43.916 16.7196C44.9895 16.8684 45.2175 18.857 45.6786 19.6141C45.876 19.9383 46.0734 20.2625 46.2708 20.5867C46.5566 21.056 46.6736 21.572 47.2022 21.1632" stroke="white" stroke-width="2" stroke-linecap="round"/>
<path d="M45.772 15.2405C46.5218 15.1905 47.4182 16.8228 47.8051 17.3881C48.303 18.1154 49.1593 18.5083 49.6751 19.2544C49.9719 19.6838 50.2979 20.0522 50.5735 20.5048" stroke="white" stroke-width="2" stroke-linecap="round"/>
<path d="M52 21.6567L52.0635 21.7609" stroke="white" stroke-width="2" stroke-linecap="round"/>
<path d="M52.21 22.2393L52.4003 22.5519" stroke="white" stroke-width="2" stroke-linecap="round"/>
<path d="M49.6276 18.2366C48.9597 17.7233 48.3162 17.0738 47.7929 16.4282C47.6303 16.2274 47.299 16.0559 47.0957 15.9054C46.221 15.2577 45.4562 14.4938 44.5951 13.8371C44.3773 13.671 44.1049 13.4194 43.8454 13.3208C43.4473 13.1695 43.0157 13.3313 42.626 13.1581C42.1147 12.9309 41.618 12.6686 41.071 12.5238C40.6992 12.4254 40.0791 12.4356 39.7842 12.1578C38.8926 11.3178 42.0273 13.3773 42.7399 14.3644C42.8711 14.5462 43.2542 15.0882 43.0829 14.9409C42.4778 14.4208 41.7264 14.0656 41.0788 13.5956C40.816 13.4048 39.3755 12.871 39.4261 12.6816" stroke="white" stroke-width="2" stroke-linecap="round"/>
<path d="M44.1123 16.3271C42.7382 16.0288 41.5081 14.7285 40.3129 14.0322C39.9885 13.8432 39.5922 13.684 39.3125 13.4482" stroke="white" stroke-width="2" stroke-linecap="round"/>
<path d="M44.608 18.571C43.9134 17.7064 42.9665 17.1017 42.2159 16.3238C41.8658 15.961 41.3838 15.7279 41.0628 15.3434C40.8599 15.1004 40.6984 14.8433 40.4577 14.6278C39.6597 13.9129 38.9132 13.679 37.918 13.541" stroke="white" stroke-width="2" stroke-linecap="round"/>
<path d="M39.4087 14.7972C39.7441 15.348 38.2435 14.192 37.6437 13.9239C36.7688 13.5327 37.9568 14.1568 38.4083 14.2133C39.0823 14.2976 39.333 14.6292 39.7923 15.0698C39.9982 15.2673 40.2011 15.3471 40.4644 15.4587C41.0049 15.6878 41.0094 15.639 40.7779 15.1396" stroke="white" stroke-width="2" stroke-linecap="round"/>
<path d="M34.4702 13.1204C35.2422 13.3982 36.1722 13.2929 36.9824 13.5132C37.3108 13.6025 37.6484 13.7143 37.9817 13.6453" stroke="white" stroke-width="2" stroke-linecap="round"/>
<path d="M35.3628 11.4885C36.5141 11.8853 37.5353 12.5568 38.5646 13.1727" stroke="white" stroke-width="2" stroke-linecap="round"/>
<path d="M36.522 11.2488C37.4728 11.0654 38.4845 11.1203 39.4374 11.2713" stroke="white" stroke-width="2" stroke-linecap="round"/>
<path d="M39.2412 11.6638C39.9574 11.8915 40.6111 12.3047 41.27 12.6129" stroke="white" stroke-width="2" stroke-linecap="round"/>
<path d="M40.8896 11.9875C41.0322 12.197 41.2059 12.3652 41.3781 12.5514" stroke="white" stroke-width="2" stroke-linecap="round"/>
<path d="M41.4854 12.49L41.5488 12.5942" stroke="white" stroke-width="2" stroke-linecap="round"/>
<path d="M42.3604 12.9739L42.5315 13.0167" stroke="white" stroke-width="2" stroke-linecap="round"/>
<path d="M42.4932 12.4771L42.6201 12.6855" stroke="white" stroke-width="2" stroke-linecap="round"/>
<path d="M42.0241 12.1831C41.9216 12.045 41.7892 11.9441 41.6626 11.8276" stroke="white" stroke-width="2" stroke-linecap="round"/>
<path d="M40.097 11.8778C39.9459 11.9527 39.8686 11.9472 39.7104 11.9578" stroke="white" stroke-width="2" stroke-linecap="round"/>
<path d="M34.9585 13.6841C35.0632 13.7925 35.1606 13.7546 35.3008 13.7697" stroke="white" stroke-width="2" stroke-linecap="round"/>
<path d="M35.8779 14.0022L36.3471 14.2962" stroke="white" stroke-width="2" stroke-linecap="round"/>
<path d="M36.2837 14.1921L36.3914 14.1307" stroke="white" stroke-width="2" stroke-linecap="round"/>
<path d="M37.1587 14.676L37.2221 14.7802" stroke="white" stroke-width="2" stroke-linecap="round"/>
<path d="M40.5664 12.1718L40.4395 11.9634" stroke="white" stroke-width="2" stroke-linecap="round"/>
<path d="M40.3133 11.7546L40.2588 11.7856" stroke="white" stroke-width="2" stroke-linecap="round"/>
<line y1="-0.5" x2="5.71557" y2="-0.5" transform="matrix(-0.00815245 0.987068 -1.01251 -0.00782896 32.186 9.36914)" stroke="#FFFEFE"/>
<path d="M34.7057 10.5292C34.7385 10.689 34.8146 11.56 34.5685 11.1378C34.3519 10.7662 34.5498 10.9184 34.5827 11.2272C34.63 11.6718 34.4015 12.0926 34.3546 12.527C34.3192 12.855 34.1921 13.0162 34.0243 13.2885C33.9114 13.4717 34.0454 13.7358 33.8807 13.8734C33.7115 14.0148 33.77 13.3469 33.7613 13.2669C33.7268 12.95 33.5477 12.7057 33.498 12.4109C33.4218 11.9581 33.529 11.42 33.5755 10.963C33.6144 10.5797 33.5754 10.4795 33.9612 10.2596C34.3237 10.053 34.3441 10.1492 34.6879 10.2352C35.1726 10.3565 35.6652 10.2871 36.164 10.3296C36.3729 10.3474 36.5127 10.4171 36.6891 10.4904C36.8584 10.5608 37.0901 10.5412 37.2346 10.6317" stroke="white" stroke-width="2" stroke-linecap="round"/>
<path d="M33.406 9.58582L33.2983 9.64722" stroke="white" stroke-width="2" stroke-linecap="round"/>
<path d="M38.9224 49.3611L38.9224 49.603" stroke="white" stroke-width="2" stroke-linecap="round"/>
<path d="M39.5474 50.8125C39.4076 50.799 39.4041 50.7381 39.3599 50.6311" stroke="white" stroke-width="2" stroke-linecap="round"/>
<path d="M38.0474 48.0308C38.0108 48.5973 37.9224 49.1264 37.9224 49.6971C37.9224 49.8969 37.9849 50.0731 37.9849 50.2683C37.9849 50.4223 37.9262 50.5546 38.1099 50.5102" stroke="white" stroke-width="2" stroke-linecap="round"/>
<path d="M35.1726 47.6076C34.9955 48.0146 35.1101 48.6127 35.1101 49.0522C35.1101 49.3335 35.0827 49.6245 35.1761 49.8954C35.3179 50.307 36.0406 49.8342 36.1934 49.6166C36.3669 49.3696 36.3768 49.1183 36.4365 48.8439C36.501 48.5474 36.4156 48.2728 36.6414 48.0544C36.8584 47.8443 36.8827 47.5841 37.1761 47.4564C37.4068 47.3559 38.1331 47.204 37.8809 47.1842C37.5783 47.1605 37.154 47.1258 36.8601 47.2111C36.5428 47.3032 36.1973 47.3888 35.9087 47.5471C35.5829 47.7257 35.328 47.9878 35.0059 48.1652C34.7662 48.2974 34.2277 48.604 34.1691 48.1787C34.1178 47.806 34.003 48.3113 33.992 48.4307C33.964 48.7361 33.9851 49.0511 33.9851 49.3579C33.9851 49.8464 33.9226 50.3281 33.9226 50.8193C33.9226 51.4969 35.1171 51.2149 35.4469 50.9907C35.7194 50.8054 35.806 50.7333 36.1518 50.7051C36.4406 50.6816 36.7053 50.65 36.9851 50.5842C37.2448 50.523 37.3281 50.5906 37.0754 50.7723C36.8686 50.9209 36.4194 50.7925 36.1726 50.8261C35.666 50.895 34.8907 50.9527 34.4434 51.2124C34.3765 51.2513 34.0263 51.4722 33.9573 51.3569C33.7752 51.0525 33.8371 50.4636 33.8636 50.1172C33.8855 49.8312 33.9226 49.5561 33.9226 49.2672C33.9226 49.0762 33.8049 48.9457 33.7976 48.7633C33.7863 48.4786 33.8174 48.2854 33.9226 48.0309" stroke="white" stroke-width="2" stroke-linecap="round"/>
<path d="M46.5658 22.5087C51.1773 30.0818 48.398 39.9802 40.2922 44.6012C32.1864 49.2221 21.8909 46.7773 17.2794 39.2042C12.6679 31.6311 15.4471 21.7327 23.553 17.1117C31.6588 12.4908 41.9543 14.9356 46.5658 22.5087Z" stroke="black"/>
<path d="M51.7352 19.5616C58.0306 29.9001 54.2956 43.3561 43.3379 49.6029C32.3801 55.8496 18.4052 52.4895 12.1098 42.1511C5.81436 31.8126 9.54937 18.3565 20.5071 12.1098C31.4648 5.86308 45.4397 9.22315 51.7352 19.5616Z" stroke="black"/>
</mask>
<g mask="url(#mask0_812_59)">
<rect x="4" y="-1.79468" width="65" height="62.8919" fill="#3B3C3F"/>
</g>
<path d="M27.288 32.6021C27.288 33.0821 27.212 33.5021 27.06 33.8621C26.908 34.2221 26.696 34.5221 26.424 34.7621C26.152 35.0021 25.84 35.1821 25.488 35.3021C25.136 35.4221 24.756 35.4821 24.348 35.4821C23.836 35.4821 23.388 35.4021 23.004 35.2421C22.628 35.0821 22.304 34.8701 22.032 34.6061C21.768 34.3341 21.544 34.0381 21.36 33.7181L22.224 33.1301C22.352 33.3701 22.52 33.5981 22.728 33.8141C22.944 34.0221 23.192 34.1941 23.472 34.3301C23.752 34.4581 24.044 34.5221 24.348 34.5221C24.748 34.5221 25.088 34.4421 25.368 34.2821C25.648 34.1221 25.86 33.8981 26.004 33.6101C26.156 33.3221 26.232 32.9861 26.232 32.6021C26.232 32.2181 26.148 31.8821 25.98 31.5941C25.82 31.3061 25.596 31.0821 25.308 30.9221C25.028 30.7621 24.708 30.6821 24.348 30.6821C24.084 30.6821 23.84 30.7061 23.616 30.7541C23.4 30.7941 23.18 30.8701 22.956 30.9821C22.74 31.0861 22.488 31.2381 22.2 31.4381L23.304 26.9621H27.264V27.8621H24.096L23.532 30.0821C23.732 29.9781 23.936 29.9021 24.144 29.8541C24.36 29.7981 24.572 29.7701 24.78 29.7701C25.26 29.7701 25.688 29.8901 26.064 30.1301C26.448 30.3701 26.748 30.7021 26.964 31.1261C27.18 31.5501 27.288 32.0421 27.288 32.6021ZM29.2734 31.1621C29.2734 31.6501 29.3214 32.1021 29.4174 32.5181C29.5134 32.9261 29.6534 33.2821 29.8374 33.5861C30.0214 33.8821 30.2414 34.1141 30.4974 34.2821C30.7614 34.4421 31.0534 34.5221 31.3734 34.5221C31.7014 34.5221 31.9934 34.4421 32.2494 34.2821C32.5054 34.1141 32.7254 33.8821 32.9094 33.5861C33.0934 33.2821 33.2334 32.9261 33.3294 32.5181C33.4254 32.1021 33.4734 31.6501 33.4734 31.1621C33.4734 30.6741 33.4254 30.2261 33.3294 29.8181C33.2334 29.4021 33.0934 29.0461 32.9094 28.7501C32.7254 28.4461 32.5054 28.2141 32.2494 28.0541C31.9934 27.8861 31.7014 27.8021 31.3734 27.8021C31.0534 27.8021 30.7614 27.8861 30.4974 28.0541C30.2414 28.2141 30.0214 28.4461 29.8374 28.7501C29.6534 29.0461 29.5134 29.4021 29.4174 29.8181C29.3214 30.2261 29.2734 30.6741 29.2734 31.1621ZM28.2534 31.1621C28.2534 30.3221 28.3854 29.5781 28.6494 28.9301C28.9134 28.2821 29.2774 27.7741 29.7414 27.4061C30.2134 27.0301 30.7574 26.8421 31.3734 26.8421C31.9894 26.8421 32.5294 27.0301 32.9934 27.4061C33.4654 27.7741 33.8334 28.2821 34.0974 28.9301C34.3614 29.5781 34.4934 30.3221 34.4934 31.1621C34.4934 32.0021 34.3614 32.7461 34.0974 33.3941C33.8334 34.0421 33.4654 34.5541 32.9934 34.9301C32.5294 35.2981 31.9894 35.4821 31.3734 35.4821C30.7574 35.4821 30.2134 35.2981 29.7414 34.9301C29.2774 34.5541 28.9134 34.0421 28.6494 33.3941C28.3854 32.7461 28.2534 32.0021 28.2534 31.1621ZM35.3888 28.7621C35.3888 28.4021 35.4648 28.0781 35.6168 27.7901C35.7768 27.5021 36.0008 27.2741 36.2888 27.1061C36.5768 26.9301 36.9088 26.8421 37.2848 26.8421C37.6688 26.8421 38.0008 26.9301 38.2808 27.1061C38.5688 27.2741 38.7888 27.5021 38.9408 27.7901C39.1008 28.0781 39.1808 28.4021 39.1808 28.7621C39.1808 29.1141 39.1008 29.4381 38.9408 29.7341C38.7888 30.0221 38.5688 30.2541 38.2808 30.4301C38.0008 30.5981 37.6688 30.6821 37.2848 30.6821C36.9088 30.6821 36.5768 30.5981 36.2888 30.4301C36.0008 30.2541 35.7768 30.0221 35.6168 29.7341C35.4648 29.4381 35.3888 29.1141 35.3888 28.7621ZM36.2408 28.7621C36.2408 28.9621 36.2808 29.1501 36.3608 29.3261C36.4488 29.5021 36.5688 29.6421 36.7208 29.7461C36.8808 29.8501 37.0688 29.9021 37.2848 29.9021C37.5088 29.9021 37.6968 29.8501 37.8488 29.7461C38.0008 29.6421 38.1168 29.5021 38.1968 29.3261C38.2848 29.1501 38.3288 28.9621 38.3288 28.7621C38.3288 28.5541 38.2848 28.3661 38.1968 28.1981C38.1168 28.0221 38.0008 27.8821 37.8488 27.7781C37.6968 27.6741 37.5088 27.6221 37.2848 27.6221C37.0688 27.6221 36.8808 27.6741 36.7208 27.7781C36.5688 27.8821 36.4488 28.0221 36.3608 28.1981C36.2808 28.3661 36.2408 28.5541 36.2408 28.7621ZM39.7688 33.5621C39.7688 33.2021 39.8448 32.8781 39.9968 32.5901C40.1568 32.3021 40.3808 32.0741 40.6688 31.9061C40.9568 31.7301 41.2888 31.6421 41.6648 31.6421C42.0488 31.6421 42.3808 31.7301 42.6608 31.9061C42.9488 32.0741 43.1688 32.3021 43.3208 32.5901C43.4808 32.8781 43.5608 33.2021 43.5608 33.5621C43.5608 33.9141 43.4808 34.2381 43.3208 34.5341C43.1688 34.8221 42.9488 35.0541 42.6608 35.2301C42.3808 35.3981 42.0488 35.4821 41.6648 35.4821C41.2888 35.4821 40.9568 35.3981 40.6688 35.2301C40.3808 35.0541 40.1568 34.8221 39.9968 34.5341C39.8448 34.2381 39.7688 33.9141 39.7688 33.5621ZM40.6208 33.5621C40.6208 33.7621 40.6608 33.9501 40.7408 34.1261C40.8288 34.3021 40.9488 34.4421 41.1008 34.5461C41.2608 34.6501 41.4488 34.7021 41.6648 34.7021C41.8888 34.7021 42.0768 34.6501 42.2288 34.5461C42.3808 34.4421 42.4968 34.3021 42.5768 34.1261C42.6648 33.9501 42.7088 33.7621 42.7088 33.5621C42.7088 33.3541 42.6648 33.1661 42.5768 32.9981C42.4968 32.8221 42.3808 32.6821 42.2288 32.5781C42.0768 32.4741 41.8888 32.4221 41.6648 32.4221C41.4488 32.4221 41.2608 32.4741 41.1008 32.5781C40.9488 32.6821 40.8288 32.8221 40.7408 32.9981C40.6608 33.1661 40.6208 33.3541 40.6208 33.5621ZM41.7248 26.9621H42.6248L37.2248 35.3621H36.3248L41.7248 26.9621Z" fill="#3B3C3F"/>
</svg>
